<svg version="1.1" xmlns="http://www.w3.org/2000/svg" xmlns:xlink="http://www.w3.org/1999/xlink">
<defs>

<symbol id="telegram" viewBox="0 0 40 40" fill="none">
<rect x="1" y="1" width="38" height="38" rx="19" stroke="#FFCF3B" stroke-width="2"/>
<g clip-path="url(#clip0_2001_96)">
<g clip-path="url(#clip1_2001_96)">
<path fill-rule="evenodd" clip-rule="evenodd" d="M16.4732 20.9366L13.2473 19.7549C12.9196 19.6344 12.9168 19.1804 13.2435 19.0568L26.4826 14.0442C26.7633 13.9377 27.0529 14.179 26.9917 14.4683L24.6159 25.6847C24.5599 25.9495 24.2435 26.0696 24.0202 25.9103L20.777 23.5993C20.58 23.459 20.3115 23.4665 20.1231 23.6172L18.3249 25.0559C18.1161 25.2234 17.8017 25.1301 17.7218 24.8777L16.4732 20.9366ZM23.8251 16.4966L17.5205 20.3076C17.2789 20.454 17.1651 20.7404 17.2432 21.0085L17.9249 23.3593C17.9733 23.5258 18.2196 23.5087 18.2431 23.3366L18.4203 22.0475C18.4537 21.8048 18.5717 21.5812 18.7546 21.4141L23.9577 16.6672C24.055 16.5786 23.9384 16.4283 23.8251 16.4966Z" fill="black"/>
</g>
</g>
<clipPath id="clip0_2001_96">
<rect width="14" height="12" fill="white" transform="translate(13 14)"/>
</clipPath>
<clipPath id="clip1_2001_96">
<rect width="14" height="12" fill="white" transform="translate(13 14)"/>
</clipPath>
</symbol>

<symbol id="viber" viewBox="0 0 40 40" fill="none">
<rect x="1" y="1" width="38" height="38" rx="19" stroke="#FFCF3B" stroke-width="2"/>
<g clip-path="url(#clip0_2001_101)">
<g clip-path="url(#clip1_2001_101)">
<g clip-path="url(#clip2_2001_101)">
<path d="M20.2784 11.0004C19.7449 11.0035 19.2099 11.0356 18.6704 11.1013C17.6386 11.2281 16.6161 11.4391 15.6348 11.89C14.0742 12.6069 12.9675 13.8235 12.6466 15.592C12.5105 16.3379 12.4005 17.0945 12.3378 17.8557C12.2171 19.3338 12.292 20.8164 12.7108 22.2731C13.0409 23.421 13.6493 24.4527 14.7146 25.1222C15.1655 25.405 15.7601 25.5425 16.0704 25.6862C16.1575 25.7275 16.1789 25.7519 16.1835 25.7581C16.1881 25.7626 16.2003 25.7733 16.1988 25.865C16.1881 26.8005 16.1988 28.6102 16.1988 28.6102L16.2003 29H16.8988L17.012 28.8899C17.012 28.8899 18.7865 27.1826 19.4285 26.4795C19.5447 26.3542 19.6043 26.2839 19.6165 26.2762C19.6272 26.2686 19.6089 26.264 19.7281 26.2609C20.5703 26.2441 21.411 26.212 22.2516 26.1662C23.3598 26.105 24.4894 25.9996 25.5761 25.5456C26.5223 25.1497 27.3125 24.5032 27.7909 23.5341C28.28 22.5406 28.5414 21.4874 28.6392 20.3976C28.8013 18.5833 28.7447 16.7659 28.2434 14.9745C27.9484 13.9244 27.3553 13.0364 26.4458 12.4097C25.3576 11.6607 24.1302 11.3795 22.9288 11.2006C22.2272 11.0967 21.521 11.0279 20.8118 11.0065C20.6345 11.0019 20.4572 10.9989 20.2784 11.0004ZM20.7904 11.7891C21.4645 11.8074 22.1385 11.8732 22.8141 11.9741C23.9727 12.1468 25.0656 12.4097 26.0026 13.0547C26.7622 13.5774 27.2361 14.2836 27.4898 15.1839C27.9575 16.8591 28.0171 18.5756 27.8597 20.3288C27.7695 21.3392 27.5296 22.2914 27.0878 23.1886C26.6981 23.9804 26.0897 24.4833 25.2735 24.8241C24.3258 25.22 23.2956 25.3255 22.2104 25.3851C21.3789 25.431 20.5458 25.4615 19.7128 25.4783C19.5034 25.4829 19.2986 25.538 19.1534 25.6449C19.0082 25.7519 18.9424 25.8513 18.8523 25.9491C18.3937 26.4505 17.4797 27.3324 16.9814 27.8154C16.9783 27.2315 16.9737 26.5254 16.9814 25.8742C16.9844 25.674 16.9386 25.4692 16.8239 25.3071C16.7093 25.1451 16.5519 25.0473 16.4006 24.977C15.9588 24.7722 15.381 24.6163 15.1304 24.4588C14.2545 23.9086 13.7578 23.0832 13.4628 22.056C13.0761 20.7125 13.0027 19.3292 13.1173 17.9214C13.1785 17.1908 13.2839 16.4587 13.4169 15.7326C13.6951 14.2026 14.5694 13.2396 15.9603 12.6007C16.8392 12.1972 17.7777 11.9985 18.7667 11.8778C19.4407 11.7952 20.1148 11.7692 20.7904 11.7891ZM20.9555 13.7395C20.633 13.7395 20.3196 13.7762 20.0155 13.8434C19.8061 13.8923 19.6731 14.1017 19.7205 14.3127C19.7678 14.5236 19.9788 14.655 20.1897 14.6077C20.4358 14.5511 20.6926 14.5221 20.9555 14.5221C22.8661 14.5221 24.4068 16.0628 24.4068 17.9719C24.4068 18.2363 24.3778 18.4931 24.3212 18.7407C24.2739 18.9501 24.4053 19.1611 24.6162 19.2084C24.8272 19.2558 25.0366 19.1228 25.084 18.9119C25.1527 18.6093 25.1894 18.2959 25.1894 17.9719C25.1894 15.6394 23.2895 13.7395 20.9555 13.7395ZM17.0517 14.5236C16.9875 14.5205 16.9218 14.5251 16.853 14.5404C16.1422 14.6978 15.4361 15.2129 15.4162 16.1331C15.4361 16.2615 15.4345 16.3991 15.4819 16.5152C15.7143 17.0838 15.916 17.6708 16.2064 18.2088C17.6203 20.8225 19.7587 22.6399 22.484 23.7939C22.8096 23.9315 23.1458 23.9605 23.4744 23.823C23.9269 23.635 24.3105 23.3446 24.5658 22.9273C24.9158 22.3541 24.9204 21.9567 24.3442 21.5333C23.9666 21.2551 23.5952 20.9693 23.2131 20.6972C22.6307 20.2845 22.001 20.2127 21.5669 20.9372C21.544 20.9739 21.5103 21.0044 21.4813 21.035C21.2581 21.2719 20.9845 21.33 20.6941 21.2108C19.5921 20.7568 18.7407 20.0247 18.2271 18.9348C17.9245 18.2944 18.007 17.9734 18.5726 17.547C18.6291 17.5057 18.6826 17.4614 18.7346 17.414C18.9822 17.1878 19.0479 16.9187 18.9012 16.6146C18.5695 15.9206 18.1278 15.3016 17.5683 14.7681C17.417 14.6245 17.2443 14.5343 17.0517 14.5236ZM20.9494 14.9134C20.7766 14.9134 20.6055 14.9271 20.4373 14.9562C20.2952 14.9745 20.1744 15.0693 20.1224 15.2022C20.0705 15.3367 20.0965 15.4881 20.1882 15.5981C20.2814 15.7066 20.4281 15.7571 20.5688 15.7265C20.6911 15.7066 20.8194 15.6959 20.9494 15.6959C22.2211 15.6959 23.2421 16.717 23.2421 17.9887C23.2421 18.1186 23.2314 18.247 23.2115 18.3693C23.181 18.5099 23.2314 18.6566 23.3399 18.7499C23.45 18.8416 23.6013 18.8676 23.7358 18.8156C23.8688 18.7636 23.9636 18.6429 23.9819 18.5007C24.011 18.3326 24.0247 18.1614 24.0247 17.9887C24.0247 16.2951 22.6429 14.9134 20.9494 14.9134ZM20.8943 16.0872C20.7537 16.0857 20.6223 16.1591 20.5504 16.2814C20.4801 16.4036 20.4801 16.5534 20.5504 16.6757C20.6223 16.798 20.7537 16.8714 20.8943 16.8698C21.547 16.8698 22.0682 17.3911 22.0682 18.0437C22.0667 18.1843 22.1401 18.3158 22.2623 18.3876C22.3846 18.4579 22.5344 18.4579 22.6567 18.3876C22.779 18.3158 22.8523 18.1843 22.8508 18.0437C22.8508 16.9677 21.9704 16.0872 20.8943 16.0872Z" fill="black"/>
</g>
</g>
</g>
<defs>
<clipPath id="clip0_2001_101">
<rect width="18" height="18" fill="white" transform="translate(11 11)"/>
</clipPath>
<clipPath id="clip1_2001_101">
<rect width="18" height="18" fill="white" transform="translate(11 11)"/>
</clipPath>
<clipPath id="clip2_2001_101">
<rect width="18" height="18" fill="white" transform="translate(11 11)"/>
</clipPath>
</defs>
</symbol>

<symbol id="arrow-dowm" viewBox="0 0 8 6" fill="none">
<path fill-rule="evenodd" clip-rule="evenodd" d="M3.82843 3.00015L5.94975 0.878831C6.34027 0.488306 6.97344 0.488306 7.36396 0.878831C7.75449 1.26936 7.75449 1.90252 7.36396 2.29305L4.53553 5.12147C4.14501 5.512 3.51184 5.512 3.12132 5.12147L0.292893 2.29305C-0.097631 1.90252 -0.097631 1.26936 0.292893 0.878831C0.683418 0.488306 1.31658 0.488306 1.70711 0.878831L3.82843 3.00015Z" fill="black"/>
</symbol>

</defs>
</svg>

