<svg version="1.1" xmlns="http://www.w3.org/2000/svg" xmlns:xlink="http://www.w3.org/1999/xlink">
<defs>

<symbol id="telegram" viewBox="0 0 40 40" fill="none">
<rect x="1" y="1" width="38" height="38" rx="19" stroke="#FFCF3B" stroke-width="2"/>
<g clip-path="url(#clip0_2001_96)">
<g clip-path="url(#clip1_2001_96)">
<path fill-rule="evenodd" clip-rule="evenodd" d="M16.4732 20.9366L13.2473 19.7549C12.9196 19.6344 12.9168 19.1804 13.2435 19.0568L26.4826 14.0442C26.7633 13.9377 27.0529 14.179 26.9917 14.4683L24.6159 25.6847C24.5599 25.9495 24.2435 26.0696 24.0202 25.9103L20.777 23.5993C20.58 23.459 20.3115 23.4665 20.1231 23.6172L18.3249 25.0559C18.1161 25.2234 17.8017 25.1301 17.7218 24.8777L16.4732 20.9366ZM23.8251 16.4966L17.5205 20.3076C17.2789 20.454 17.1651 20.7404 17.2432 21.0085L17.9249 23.3593C17.9733 23.5258 18.2196 23.5087 18.2431 23.3366L18.4203 22.0475C18.4537 21.8048 18.5717 21.5812 18.7546 21.4141L23.9577 16.6672C24.055 16.5786 23.9384 16.4283 23.8251 16.4966Z" fill="black"/>
</g>
</g>
<clipPath id="clip0_2001_96">
<rect width="14" height="12" fill="white" transform="translate(13 14)"/>
</clipPath>
<clipPath id="clip1_2001_96">
<rect width="14" height="12" fill="white" transform="translate(13 14)"/>
</clipPath>
</symbol>

<symbol id="viber" viewBox="0 0 40 40" fill="none">
<rect x="1" y="1" width="38" height="38" rx="19" stroke="#FFCF3B" stroke-width="2"/>
<g clip-path="url(#clip0_2001_101)">
<g clip-path="url(#clip1_2001_101)">
<g clip-path="url(#clip2_2001_101)">
<path d="M20.2784 11.0004C19.7449 11.0035 19.2099 11.0356 18.6704 11.1013C17.6386 11.2281 16.6161 11.4391 15.6348 11.89C14.0742 12.6069 12.9675 13.8235 12.6466 15.592C12.5105 16.3379 12.4005 17.0945 12.3378 17.8557C12.2171 19.3338 12.292 20.8164 12.7108 22.2731C13.0409 23.421 13.6493 24.4527 14.7146 25.1222C15.1655 25.405 15.7601 25.5425 16.0704 25.6862C16.1575 25.7275 16.1789 25.7519 16.1835 25.7581C16.1881 25.7626 16.2003 25.7733 16.1988 25.865C16.1881 26.8005 16.1988 28.6102 16.1988 28.6102L16.2003 29H16.8988L17.012 28.8899C17.012 28.8899 18.7865 27.1826 19.4285 26.4795C19.5447 26.3542 19.6043 26.2839 19.6165 26.2762C19.6272 26.2686 19.6089 26.264 19.7281 26.2609C20.5703 26.2441 21.411 26.212 22.2516 26.1662C23.3598 26.105 24.4894 25.9996 25.5761 25.5456C26.5223 25.1497 27.3125 24.5032 27.7909 23.5341C28.28 22.5406 28.5414 21.4874 28.6392 20.3976C28.8013 18.5833 28.7447 16.7659 28.2434 14.9745C27.9484 13.9244 27.3553 13.0364 26.4458 12.4097C25.3576 11.6607 24.1302 11.3795 22.9288 11.2006C22.2272 11.0967 21.521 11.0279 20.8118 11.0065C20.6345 11.0019 20.4572 10.9989 20.2784 11.0004ZM20.7904 11.7891C21.4645 11.8074 22.1385 11.8732 22.8141 11.9741C23.9727 12.1468 25.0656 12.4097 26.0026 13.0547C26.7622 13.5774 27.2361 14.2836 27.4898 15.1839C27.9575 16.8591 28.0171 18.5756 27.8597 20.3288C27.7695 21.3392 27.5296 22.2914 27.0878 23.1886C26.6981 23.9804 26.0897 24.4833 25.2735 24.8241C24.3258 25.22 23.2956 25.3255 22.2104 25.3851C21.3789 25.431 20.5458 25.4615 19.7128 25.4783C19.5034 25.4829 19.2986 25.538 19.1534 25.6449C19.0082 25.7519 18.9424 25.8513 18.8523 25.9491C18.3937 26.4505 17.4797 27.3324 16.9814 27.8154C16.9783 27.2315 16.9737 26.5254 16.9814 25.8742C16.9844 25.674 16.9386 25.4692 16.8239 25.3071C16.7093 25.1451 16.5519 25.0473 16.4006 24.977C15.9588 24.7722 15.381 24.6163 15.1304 24.4588C14.2545 23.9086 13.7578 23.0832 13.4628 22.056C13.0761 20.7125 13.0027 19.3292 13.1173 17.9214C13.1785 17.1908 13.2839 16.4587 13.4169 15.7326C13.6951 14.2026 14.5694 13.2396 15.9603 12.6007C16.8392 12.1972 17.7777 11.9985 18.7667 11.8778C19.4407 11.7952 20.1148 11.7692 20.7904 11.7891ZM20.9555 13.7395C20.633 13.7395 20.3196 13.7762 20.0155 13.8434C19.8061 13.8923 19.6731 14.1017 19.7205 14.3127C19.7678 14.5236 19.9788 14.655 20.1897 14.6077C20.4358 14.5511 20.6926 14.5221 20.9555 14.5221C22.8661 14.5221 24.4068 16.0628 24.4068 17.9719C24.4068 18.2363 24.3778 18.4931 24.3212 18.7407C24.2739 18.9501 24.4053 19.1611 24.6162 19.2084C24.8272 19.2558 25.0366 19.1228 25.084 18.9119C25.1527 18.6093 25.1894 18.2959 25.1894 17.9719C25.1894 15.6394 23.2895 13.7395 20.9555 13.7395ZM17.0517 14.5236C16.9875 14.5205 16.9218 14.5251 16.853 14.5404C16.1422 14.6978 15.4361 15.2129 15.4162 16.1331C15.4361 16.2615 15.4345 16.3991 15.4819 16.5152C15.7143 17.0838 15.916 17.6708 16.2064 18.2088C17.6203 20.8225 19.7587 22.6399 22.484 23.7939C22.8096 23.9315 23.1458 23.9605 23.4744 23.823C23.9269 23.635 24.3105 23.3446 24.5658 22.9273C24.9158 22.3541 24.9204 21.9567 24.3442 21.5333C23.9666 21.2551 23.5952 20.9693 23.2131 20.6972C22.6307 20.2845 22.001 20.2127 21.5669 20.9372C21.544 20.9739 21.5103 21.0044 21.4813 21.035C21.2581 21.2719 20.9845 21.33 20.6941 21.2108C19.5921 20.7568 18.7407 20.0247 18.2271 18.9348C17.9245 18.2944 18.007 17.9734 18.5726 17.547C18.6291 17.5057 18.6826 17.4614 18.7346 17.414C18.9822 17.1878 19.0479 16.9187 18.9012 16.6146C18.5695 15.9206 18.1278 15.3016 17.5683 14.7681C17.417 14.6245 17.2443 14.5343 17.0517 14.5236ZM20.9494 14.9134C20.7766 14.9134 20.6055 14.9271 20.4373 14.9562C20.2952 14.9745 20.1744 15.0693 20.1224 15.2022C20.0705 15.3367 20.0965 15.4881 20.1882 15.5981C20.2814 15.7066 20.4281 15.7571 20.5688 15.7265C20.6911 15.7066 20.8194 15.6959 20.9494 15.6959C22.2211 15.6959 23.2421 16.717 23.2421 17.9887C23.2421 18.1186 23.2314 18.247 23.2115 18.3693C23.181 18.5099 23.2314 18.6566 23.3399 18.7499C23.45 18.8416 23.6013 18.8676 23.7358 18.8156C23.8688 18.7636 23.9636 18.6429 23.9819 18.5007C24.011 18.3326 24.0247 18.1614 24.0247 17.9887C24.0247 16.2951 22.6429 14.9134 20.9494 14.9134ZM20.8943 16.0872C20.7537 16.0857 20.6223 16.1591 20.5504 16.2814C20.4801 16.4036 20.4801 16.5534 20.5504 16.6757C20.6223 16.798 20.7537 16.8714 20.8943 16.8698C21.547 16.8698 22.0682 17.3911 22.0682 18.0437C22.0667 18.1843 22.1401 18.3158 22.2623 18.3876C22.3846 18.4579 22.5344 18.4579 22.6567 18.3876C22.779 18.3158 22.8523 18.1843 22.8508 18.0437C22.8508 16.9677 21.9704 16.0872 20.8943 16.0872Z" fill="black"/>
</g>
</g>
</g>
<defs>
<clipPath id="clip0_2001_101">
<rect width="18" height="18" fill="white" transform="translate(11 11)"/>
</clipPath>
<clipPath id="clip1_2001_101">
<rect width="18" height="18" fill="white" transform="translate(11 11)"/>
</clipPath>
<clipPath id="clip2_2001_101">
<rect width="18" height="18" fill="white" transform="translate(11 11)"/>
</clipPath>
</defs>
</symbol>

<symbol id="arrow-dowm" viewBox="0 0 8 6" fill="none">
<path fill-rule="evenodd" clip-rule="evenodd" d="M3.82843 3.00015L5.94975 0.878831C6.34027 0.488306 6.97344 0.488306 7.36396 0.878831C7.75449 1.26936 7.75449 1.90252 7.36396 2.29305L4.53553 5.12147C4.14501 5.512 3.51184 5.512 3.12132 5.12147L0.292893 2.29305C-0.097631 1.90252 -0.097631 1.26936 0.292893 0.878831C0.683418 0.488306 1.31658 0.488306 1.70711 0.878831L3.82843 3.00015Z" fill="black"/>
</symbol>

<symbol id="contacts-tel" viewBox="0 0 25 24" fill="none">
<g clip-path="url(#clip0_2022_48)">
<path fill-rule="evenodd" clip-rule="evenodd" d="M12.5 24C19.1274 24 24.5 18.6274 24.5 12C24.5 5.37258 19.1274 0 12.5 0C5.87258 0 0.5 5.37258 0.5 12C0.5 18.6274 5.87258 24 12.5 24Z" fill="white"/>
<path fill-rule="evenodd" clip-rule="evenodd" d="M20.2125 10.0806C20.206 10.1135 20.2015 10.1467 20.1971 10.1799C20.1881 10.2468 20.1792 10.3133 20.1535 10.3759C20.0075 10.7284 19.78 11.0419 19.5528 11.3551C19.4257 11.5302 19.2988 11.7052 19.1862 11.8868C18.7816 12.5332 15.3444 11.1403 15.7873 10.2772C15.8403 10.176 15.9419 10.0181 16.0575 9.83853C16.3064 9.45195 16.6204 8.96433 16.6541 8.72244C16.6989 8.40655 16.2801 8.15878 15.8934 8.12678C15.1732 8.06868 14.3113 8.08876 13.4856 8.10799C13.142 8.11599 12.8046 8.12385 12.4863 8.12587C12.4575 8.12587 12.4255 8.12678 12.3963 8.12632C12.3665 8.12678 12.3345 8.12678 12.3062 8.12678C11.9877 8.12476 11.6503 8.11599 11.3066 8.10798C10.481 8.08875 9.61953 8.06868 8.89912 8.12678C8.51237 8.15878 8.09363 8.40655 8.13843 8.7229C8.17183 8.96482 8.48597 9.45253 8.73499 9.83914C8.85064 10.0187 8.95226 10.1764 9.00517 10.2776C9.44906 11.1407 6.01043 12.5336 5.60586 11.8872C5.49374 11.7068 5.36763 11.5329 5.24143 11.3588C5.0136 11.0446 4.78551 10.73 4.639 10.3764C4.61327 10.3136 4.60417 10.2467 4.59505 10.1797C4.59055 10.1467 4.58606 10.1136 4.57957 10.0811C4.07534 7.82735 6.01912 5.52792 8.94574 5.2925C10.0639 5.20152 11.1844 5.15032 12.3062 5.13067V5.12427C12.3183 5.12463 12.3304 5.12515 12.3424 5.12566C12.3603 5.12643 12.3782 5.12719 12.3963 5.12747C12.4143 5.12719 12.4322 5.12643 12.4501 5.12566C12.4622 5.12515 12.4742 5.12463 12.4863 5.12427V5.13021C13.6077 5.15032 14.7281 5.20107 15.8463 5.29204C18.7734 5.52747 20.7172 7.82781 20.2125 10.0806ZM18.2029 17.8566C18.2344 18.3974 17.8815 18.8386 17.4152 18.8386H7.37683C6.91192 18.8386 6.55763 18.3965 6.58963 17.8566L6.88266 12.9272C7.94643 12.6781 9.30597 12.0271 9.79923 11.2189C10.074 10.7686 10.1032 10.2616 9.8774 9.82232C9.82026 9.71261 9.71329 9.54118 9.59032 9.3501L9.58986 9.34918L9.58589 9.33987L9.58346 9.33455H15.0477C15.0459 9.33965 15.0449 9.342 15.0431 9.3461L15.0395 9.35467C14.9709 9.5197 14.9476 9.64632 14.9604 9.74187C14.9537 9.75382 14.9459 9.76711 14.9382 9.7802C14.928 9.79764 14.9178 9.81476 14.911 9.82781C14.6879 10.2612 14.7172 10.7686 14.9919 11.2184C15.4852 12.0276 16.8438 12.6772 17.9076 12.9263L18.2029 17.8566ZM10.5009 12.7403C11.5537 11.6884 13.2639 11.6884 14.3163 12.7403C15.2653 13.6898 15.3553 15.1746 14.5901 16.2287L13.9295 15.5682C14.3451 14.8824 14.2614 13.9782 13.6699 13.3867C12.9741 12.6914 11.8431 12.6914 11.1478 13.3867C10.452 14.0824 10.452 15.2134 11.1473 15.9087C11.7416 16.5035 12.6523 16.5858 13.3389 16.1643L13.9985 16.823C12.9444 17.5942 11.4532 17.5074 10.5009 16.5551C9.44906 15.5032 9.44906 13.7922 10.5009 12.7403Z" fill="#31519F"/>
</g>
<defs>
<clipPath id="clip0_2022_48">
<rect width="24" height="24" fill="white" transform="translate(0.5)"/>
</clipPath>
</defs>
</symbol>

<symbol id="contacts-vb" fill="none" >
<g clip-path="url(#clip0_2022_53)">
<path fill-rule="evenodd" clip-rule="evenodd" d="M12.5 24C19.1274 24 24.5 18.6274 24.5 12C24.5 5.37258 19.1274 0 12.5 0C5.87258 0 0.5 5.37258 0.5 12C0.5 18.6274 5.87258 24 12.5 24Z" fill="#9C5CC0"/>
<path fill-rule="evenodd" clip-rule="evenodd" d="M20.0739 8.71279L20.0786 8.73174C20.5523 10.8949 20.5523 13.0886 20.0786 15.2518L20.0739 15.2707C19.6907 16.8197 17.9633 18.4818 16.377 18.8276L16.3591 18.8313C15.0765 19.076 13.7844 19.1981 12.4928 19.1981C12.1127 19.1981 11.7325 19.1863 11.3525 19.165L9.60071 20.986C9.16702 21.4376 8.40439 21.1302 8.40439 20.5044V18.7754C6.87728 18.3393 5.27855 16.7535 4.91123 15.2707L4.90702 15.2517C4.43334 13.0886 4.43334 10.8949 4.90702 8.73174L4.91123 8.71279C5.29492 7.16384 7.02228 5.50174 8.60807 5.15595L8.62649 5.15226C11.1918 4.66279 13.7933 4.66279 16.3591 5.15226L16.377 5.15595C17.9633 5.50174 19.6907 7.16384 20.0739 8.71279ZM16.0828 17.437C17.1249 17.2049 18.4365 15.9486 18.6923 14.9381C19.1191 12.9828 19.1191 11.0007 18.6923 9.04537C18.4365 8.03484 17.1254 6.77852 16.0828 6.54642C13.7007 6.09326 11.2849 6.09326 8.90228 6.54642C7.86018 6.77852 6.54913 8.03484 6.29281 9.04537C5.86649 11.0006 5.86649 12.9827 6.29281 14.938C6.54913 15.9485 7.86018 17.2048 8.90228 17.4369C8.94876 17.446 8.98334 17.4864 8.98334 17.5337V20.3981C8.98334 20.5412 9.15807 20.6117 9.25755 20.5081L10.6181 19.1117L11.8972 17.7987C11.9162 17.7791 11.9425 17.7685 11.9698 17.7693C13.3435 17.8073 14.7185 17.6964 16.0828 17.437ZM14.6073 16.2168C14.5023 16.1879 14.4011 16.1599 14.305 16.1201C12.8358 15.5105 11.4835 14.7241 10.4124 13.5185C9.80334 12.833 9.3266 12.0591 8.9236 11.24C8.75225 10.8917 8.60505 10.5312 8.45812 10.1714L8.40728 10.0469C8.2576 9.68126 8.47807 9.30347 8.71023 9.02795C8.92807 8.76937 9.20839 8.57147 9.51197 8.42563C9.74892 8.31179 9.98265 8.37742 10.1557 8.57826C10.5298 9.01247 10.8734 9.46889 11.1517 9.97221C11.3228 10.2818 11.2759 10.6602 10.9658 10.8709C10.9052 10.912 10.8489 10.9589 10.7927 11.0058L10.7515 11.0401C10.6899 11.0907 10.632 11.1419 10.5898 11.2106C10.5126 11.3362 10.5089 11.4843 10.5586 11.6208C10.941 12.6717 11.5856 13.4889 12.6434 13.9291L12.6886 13.9481C12.8431 14.0133 13 14.0795 13.1777 14.0588C13.389 14.0341 13.5078 13.8754 13.6274 13.7158C13.6926 13.6287 13.758 13.5413 13.8388 13.4753C14.0625 13.2924 14.3483 13.2899 14.5893 13.4424C14.8303 13.5949 15.0639 13.7587 15.2961 13.9242L15.3431 13.9576C15.5552 14.1085 15.7655 14.2582 15.9613 14.4306C16.1634 14.6087 16.2331 14.8423 16.1192 15.0839C15.9108 15.5264 15.6075 15.8946 15.1701 16.1296C15.0856 16.1749 14.9899 16.1993 14.8932 16.2239C14.8485 16.2352 14.8037 16.2467 14.7597 16.2602C14.7081 16.2445 14.6572 16.2305 14.6073 16.2168ZM16.3354 11.1489C15.9971 9.24889 14.4187 7.97347 12.4968 7.91963L12.4644 7.91924C12.438 7.91881 12.4116 7.91838 12.3853 7.91984C12.249 7.92716 12.1282 8.0411 12.1538 8.18421C12.1825 8.34545 12.3446 8.36179 12.4782 8.37526L12.5013 8.37763C12.5689 8.38472 12.6367 8.39057 12.7044 8.39643C12.8546 8.4094 13.0047 8.42237 13.1524 8.44874C14.5774 8.70289 15.719 9.88731 15.918 11.3189C15.948 11.5353 15.9628 11.7538 15.9777 11.9721C15.9814 12.0275 15.9852 12.083 15.9892 12.1383C15.9992 12.2765 16.0685 12.4054 16.2225 12.4035C16.3717 12.4017 16.45 12.2704 16.4392 12.1322L16.4299 12.0107C16.4079 11.7222 16.3859 11.4328 16.3354 11.1489ZM15.4174 11.7057C15.4166 11.7118 15.4159 11.7199 15.4151 11.7296C15.4126 11.7581 15.409 11.7996 15.3985 11.8393C15.3475 12.0323 15.055 12.0564 14.9877 11.8617C14.9677 11.8039 14.9647 11.7382 14.9646 11.6759C14.9639 11.2689 14.8754 10.8623 14.6702 10.5081C14.4592 10.1441 14.1368 9.8381 13.7587 9.65295C13.5301 9.541 13.2828 9.47142 13.0322 9.42995C12.964 9.41867 12.8954 9.41016 12.8268 9.40164C12.7852 9.39647 12.7435 9.3913 12.702 9.38552C12.5686 9.367 12.4974 9.282 12.5037 9.15058C12.5096 9.02742 12.5996 8.93884 12.7338 8.94642C13.1749 8.97147 13.6009 9.06679 13.993 9.27442C14.7903 9.69668 15.2458 10.3632 15.3788 11.2532C15.3809 11.2676 15.3835 11.282 15.3861 11.2964C15.3908 11.3222 15.3955 11.348 15.3975 11.3739C15.4028 11.4442 15.4067 11.5144 15.4112 11.5957L15.4174 11.7057ZM13.9587 11.4257C13.9752 11.5731 14.0613 11.6621 14.2221 11.6592C14.2953 11.6543 14.3703 11.6035 14.3939 11.5021C14.4072 11.4448 14.4017 11.3816 14.3964 11.3215L14.3959 11.3156C14.3199 10.4384 13.7874 10.0532 13.0423 9.99942C12.9231 9.99079 12.8169 10.0759 12.7987 10.1851C12.7785 10.3049 12.8492 10.4084 12.977 10.4397C13.0322 10.4532 13.0884 10.4584 13.1446 10.4635C13.2085 10.4693 13.2724 10.4752 13.3351 10.4933C13.428 10.5201 13.5166 10.5616 13.5948 10.6186C13.7605 10.7393 13.8652 10.9218 13.9135 11.1187C13.9346 11.2048 13.9443 11.294 13.9539 11.3827C13.9555 11.397 13.957 11.4114 13.9587 11.4257Z" fill="white"/>
</g>
<defs>
<clipPath id="clip0_2022_53">
<rect width="24" height="24" fill="white" transform="translate(0.5)"/>
</clipPath>
</defs>
</symbol>

<symbol id="contacts-ks" viewBox="0 0 25 24" fill="none">
<g clip-path="url(#clip0_2022_58)">
<path fill-rule="evenodd" clip-rule="evenodd" d="M12.5 24C19.1274 24 24.5 18.6274 24.5 12C24.5 5.37258 19.1274 0 12.5 0C5.87258 0 0.5 5.37258 0.5 12C0.5 18.6274 5.87258 24 12.5 24Z" fill="#3AADE3"/>
<path fill-rule="evenodd" clip-rule="evenodd" d="M12.4671 4C13.0435 4 13.5154 4.47189 13.5154 5.04834V8.94558C13.5154 9.52225 13.0435 9.99392 12.4671 9.99392C11.8904 9.99392 11.4187 9.52225 11.4187 8.94558V5.04834C11.4187 4.47189 11.8904 4 12.4671 4ZM4.55114 9.75144C4.72939 9.20316 5.32365 8.90028 5.87215 9.07831L9.57852 10.2828C10.1268 10.4608 10.4297 11.0553 10.2514 11.6036C10.0734 12.1521 9.47891 12.455 8.93063 12.2767L5.22427 11.0725C4.67576 10.8942 4.37289 10.2999 4.55114 9.75144ZM7.34303 17.593C7.0041 18.0595 7.10844 18.7182 7.57491 19.0571C8.04139 19.3963 8.70032 19.2917 9.03925 18.8252L11.33 15.6726C11.6687 15.2061 11.5643 14.5472 11.0978 14.2082C10.6314 13.8693 9.97244 13.9736 9.63373 14.4401L7.34303 17.593ZM17.3595 19.0571C16.893 19.3961 16.2341 19.2917 15.8951 18.8252L13.6047 15.6723C13.2655 15.2059 13.3701 14.5469 13.8365 14.208C14.303 13.8691 14.962 13.9734 15.3009 14.4399L17.5914 17.5928C17.9303 18.0593 17.826 18.7182 17.3595 19.0571ZM19.7099 11.0722C20.2584 10.8942 20.5613 10.2997 20.383 9.75121C20.2048 9.20293 19.6105 8.90006 19.062 9.07831L15.3556 10.2824C14.8074 10.4606 14.5045 11.0551 14.6825 11.6034C14.8608 12.1519 15.4553 12.4548 16.0035 12.2765L19.7099 11.0722Z" fill="white"/>
</g>
<defs>
<clipPath id="clip0_2022_58">
<rect width="24" height="24" fill="white" transform="translate(0.5)"/>
</clipPath>
</defs>
</symbol>

<symbol id="contacts-ls" viewBox="0 0 25 24" fill="none">
<g clip-path="url(#clip0_2022_63)">
<path fill-rule="evenodd" clip-rule="evenodd" d="M12.5 24C19.1274 24 24.5 18.6274 24.5 12C24.5 5.37258 19.1274 0 12.5 0C5.87258 0 0.5 5.37258 0.5 12C0.5 18.6274 5.87258 24 12.5 24Z" fill="white"/>
<path fill-rule="evenodd" clip-rule="evenodd" d="M0.5 12C0.5 5.37069 5.87205 0 12.4979 0C19.1291 0 24.5 5.37069 24.5 12C24.5 18.6299 19.1291 24 12.4979 24C11.1895 24 9.93166 23.7898 8.75343 23.406C9.60667 18.453 12.7335 14.4141 16.8663 12.6994C17.3573 13.267 18.0801 13.6241 18.8869 13.6241C20.359 13.6241 21.5516 12.4299 21.5516 10.9548C21.5516 9.48104 20.359 8.28624 18.8869 8.28624C17.4133 8.28624 16.221 9.47732 16.218 10.9496C10.9444 12.5358 6.67151 16.2175 4.50281 20.9491C3.81334 20.3335 3.1989 19.6401 2.6689 18.8826C2.7931 14.2748 5.07189 10.248 8.48514 7.87481C8.97479 8.42563 9.68659 8.77289 10.48 8.77289C11.9536 8.77289 13.1472 7.57456 13.1472 6.10283C13.1472 4.62738 11.9536 3.43375 10.48 3.43375C9.00467 3.43375 7.81106 4.62738 7.81106 6.10283C7.81106 6.18002 7.81634 6.25898 7.82252 6.33186C4.64337 7.44722 2.03467 9.65394 0.508228 12.4652C0.500784 12.3131 0.5 12.1555 0.5 12Z" fill="#FFCF3B"/>
</g>
<defs>
<clipPath id="clip0_2022_63">
<rect width="24" height="24" fill="white" transform="translate(0.5)"/>
</clipPath>
</defs>
</symbol>

<symbol id="contacts-vf" viewBox="0 0 25 24" fill="none">
<g clip-path="url(#clip0_2022_68)">
<path fill-rule="evenodd" clip-rule="evenodd" d="M12.5 22C18.5751 22 23.5 17.0751 23.5 11C23.5 4.92487 18.5751 0 12.5 0C6.42487 0 1.5 4.92487 1.5 11C1.5 17.0751 6.42487 22 12.5 22Z" fill="white"/>
<path d="M17.6988 1.1822C15.4911 1.49555 13.7819 3.55371 13.7392 6.06053C16.7944 6.62315 19.1018 8.67418 19.1018 12.3347C19.1018 15.8671 16.1677 18.7228 12.5 18.7228C8.85371 18.73 5.89822 15.5252 5.89822 11.3733C5.89822 5.64748 10.9831 0.897329 17.4139 1.04688C15.9113 0.377448 14.2519 0 12.5 0C5.87685 0 0.5 5.36973 0.5 12C0.5 18.6303 5.87685 24 12.5 24C19.1231 24 24.5 18.6303 24.5 12C24.5 7.23561 21.7226 3.11929 17.6988 1.1822Z" fill="#F91600"/>
</g>
<defs>
<clipPath id="clip0_2022_68">
<rect width="24" height="24" fill="white" transform="translate(0.5)"/>
</clipPath>
</defs>
</symbol>

<symbol id="facebook-social" viewBox="0 0 50 50" fill="none" >
<rect x="1" y="1" width="48" height="48" rx="24" stroke="white" stroke-opacity="0.6" stroke-width="2"/>
<g clip-path="url(#clip0_2022_77)">
<path d="M22.4642 18.8654C22.4642 19.3684 22.4642 21.6133 22.4642 21.6133H20.5312V24.9735H22.4642V34.9588H26.435V24.9738H29.0996C29.0996 24.9738 29.3492 23.3626 29.4701 21.6009C29.1233 21.6009 26.45 21.6009 26.45 21.6009C26.45 21.6009 26.45 19.6461 26.45 19.3034C26.45 18.9601 26.883 18.4981 27.3109 18.4981C27.738 18.4981 28.6394 18.4981 29.4743 18.4981C29.4743 18.0407 29.4743 16.4599 29.4743 15C28.3597 15 27.0917 15 26.5328 15C22.3661 14.9998 22.4642 18.3633 22.4642 18.8654Z" fill="white"/>
</g>
<defs>
<clipPath id="clip0_2022_77">
<rect width="9" height="20" fill="white" transform="translate(20.5 15)"/>
</clipPath>
</defs>
</symbol>

<symbol id="instagram-social" viewBox="0 0 50 50" fill="none" >
<rect x="1" y="1" width="48" height="48" rx="24" stroke="white" stroke-opacity="0.6" stroke-width="2"/>
<g clip-path="url(#clip0_2022_81)">
<path fill-rule="evenodd" clip-rule="evenodd" d="M29.4007 15H20.4887C17.4622 15 15 17.4624 15 20.4888V29.4008C15 32.4274 17.4622 34.8896 20.4887 34.8896H29.4007C32.4274 34.8896 34.8896 32.4273 34.8896 29.4008V20.4888C34.8898 17.4624 32.4274 15 29.4007 15ZM19.8198 24.9451C19.8198 22.1191 22.1188 19.82 24.9448 19.82C27.7708 19.82 30.0699 22.1191 30.0699 24.9451C30.0699 27.7709 27.7708 30.0699 24.9448 30.0699C22.1188 30.0699 19.8198 27.7709 19.8198 24.9451ZM21.5845 24.9449C21.5845 26.7978 23.092 28.3051 24.9448 28.3051C26.7976 28.3051 28.3052 26.7978 28.3052 24.9449C28.3052 23.092 26.7978 21.5846 24.9448 21.5846C23.0919 21.5846 21.5845 23.092 21.5845 24.9449ZM29.3707 18.7025C29.6108 18.4613 29.9448 18.3236 30.2848 18.3236C30.626 18.3236 30.9601 18.4613 31.2001 18.7025C31.4413 18.9425 31.5789 19.2766 31.5789 19.6178C31.5789 19.9578 31.4413 20.2919 31.2001 20.5331C30.9589 20.7731 30.626 20.9119 30.2848 20.9119C29.9448 20.9119 29.6107 20.7731 29.3707 20.5331C29.1295 20.2919 28.9907 19.9579 28.9907 19.6178C28.9907 19.2766 29.1294 18.9425 29.3707 18.7025Z" fill="white"/>
</g>
<defs>
<clipPath id="clip0_2022_81">
<rect width="20" height="20" fill="white" transform="translate(15 15)"/>
</clipPath>
</defs>
</symbol>

<symbol id="shopping-cart" viewBox="0 0 32 32" fill="none" >
<g clip-path="url(#clip0_1_461)">
<path d="M13.4896 31.0625C14.876 31.0625 16 29.9385 16 28.5521C16 27.1656 14.876 26.0416 13.4896 26.0416C12.1031 26.0416 10.9791 27.1656 10.9791 28.5521C10.9791 29.9385 12.1031 31.0625 13.4896 31.0625Z" stroke="black" stroke-width="1.875" stroke-miterlimit="10" stroke-linecap="round" stroke-linejoin="round"/>
<path d="M24.5354 31.0625C25.9219 31.0625 27.0459 29.9385 27.0459 28.5521C27.0459 27.1656 25.9219 26.0416 24.5354 26.0416C23.149 26.0416 22.025 27.1656 22.025 28.5521C22.025 29.9385 23.149 31.0625 24.5354 31.0625Z" stroke="black" stroke-width="1.875" stroke-miterlimit="10" stroke-linecap="round" stroke-linejoin="round"/>
<path d="M24.5354 26.0417H12.4854C11.0992 26.0417 9.97501 24.9175 9.97501 23.5312C9.97501 22.145 11.0992 21.0208 12.4854 21.0208" stroke="black" stroke-width="1.875" stroke-miterlimit="10" stroke-linecap="round" stroke-linejoin="round"/>
<path d="M31.0625 8.97081H6.96249C6.96249 8.97081 8.42206 14.8096 9.30924 18.3587C9.70037 19.9232 11.1062 21.0208 12.7189 21.0208C16.125 21.0208 21.9 21.0208 25.3061 21.0208C26.9188 21.0208 28.3246 19.9232 28.7157 18.3587C29.6029 14.8096 31.0625 8.97081 31.0625 8.97081Z" stroke="black" stroke-width="1.875" stroke-miterlimit="10" stroke-linecap="round" stroke-linejoin="round"/>
<path d="M6.9625 8.97081C6.9625 8.97081 6.44031 6.88162 5.92819 4.83413C5.35581 2.54419 3.29831 0.9375 0.9375 0.9375" stroke="black" stroke-width="1.875" stroke-miterlimit="10" stroke-linecap="round" stroke-linejoin="round"/>
</g>
<defs>
<clipPath id="clip0_1_461">
<rect width="32" height="32" fill="white"/>
</clipPath>
</defs>
</symbol>

<symbol id="arrow-dowm" viewBox="0 0 12 8" fill="none" >
<path fill-rule="evenodd" clip-rule="evenodd" d="M6 3.78362L9.32458 7.10819C9.93661 7.72023 10.9289 7.72023 11.541 7.10819C12.153 6.49615 12.153 5.50385 11.541 4.8918L7.10819 0.459037C6.49615 -0.15301 5.50384 -0.15301 4.8918 0.459037L0.459029 4.8918C-0.15301 5.50385 -0.15301 6.49615 0.459029 7.10819C1.07107 7.72023 2.06337 7.72023 2.67542 7.10819L6 3.78362Z" fill="black"/>
</symbol>

<symbol id="multiply" viewBox="0 0 11 10" fill="none" >
<path fill-rule="evenodd" clip-rule="evenodd" d="M10.5 2.14286L7.6424 4.99954L10.5 7.85714L8.35714 10L5.49954 7.1424L2.64286 10L0.5 7.85714L3.3574 4.99883L0.5 2.14286L2.64286 0L5.50026 2.85597L8.35714 0L10.5 2.14286Z" fill="black"/>
</symbol>

<symbol id="plus" viewBox="0 0 10 9" fill="none" >
<path fill-rule="evenodd" clip-rule="evenodd" d="M6.5 3V0H3.5V3H0.5V6H3.5V9H6.5V6H9.5V3H6.5Z" fill="white"/>
</symbol>

<symbol id="minus" viewBox="0 0 9 4" fill="none" >
<path d="M9 0.5H0V3.5H9V0.5Z" fill="white"/>
</symbol>

<symbol id="equal" viewBox="0 0 12 10" fill="none" >
<path fill-rule="evenodd" clip-rule="evenodd" d="M11.5 0H0.5V3H11.5V0ZM11.5 7H0.5V10H11.5V7Z" fill="black"/>
</symbol>

<symbol id="production" viewBox="0 0 22 28" fill="none" >
  <g clip-path="url(#clip0_1_242)">
    <path fill-rule="evenodd" clip-rule="evenodd" d="M18.2244 2.38375V0.5H4.43361V2.39331H0.609863V27.4406H21.9853V2.3965L18.2244 2.38375ZM12.3323 25.5601V21.6735H10.4519V25.5601H2.4903V4.27381H6.31405V2.3805H16.3441V4.25781L20.1049 4.27063V25.5601H12.3323ZM10.4515 6.63938H6.69086V8.52H10.4515V6.63938ZM6.69086 14.075H10.4515V15.9556H6.69086V14.075ZM12.3321 14.075H16.0927V15.9556H12.3321V14.075ZM10.4515 17.8363H6.69086V19.7169H10.4515V17.8363ZM12.3321 17.8363H16.0927V19.7169H12.3321V17.8363ZM12.3321 6.63938H16.0927V8.52H12.3321V6.63938ZM10.4515 10.4H6.69086V12.2806H10.4515V10.4ZM12.3321 10.4H16.0927V12.2806H12.3321V10.4Z" fill="white" />
  </g>
  <defs>
    <clipPath id="clip0_1_242">
      <rect width="22" height="27" fill="white" transform="translate(0 0.5)" />
    </clipPath>
  </defs>
</symbol>

<symbol id="quality" viewBox="0 0 26 34" fill="none" >
  <path fill-rule="evenodd" clip-rule="evenodd" d="M23.7329 18.591L25.9756 16.3691L24.9103 13.3898L25.9756 10.4105L23.7329 8.18869L23.4029 5.04043L20.426 4.01877L18.7752 1.32308L15.6508 1.70266L12.9998 0L10.3488 1.70266L7.22441 1.32308L5.57367 4.01871L2.59667 5.04037L2.26666 8.18869L0.0239258 10.4105L1.0892 13.3898L0.0239258 16.3691L2.26666 18.5909L2.59661 21.7393L4.24945 22.3065L1.41658 31.217L6.2663 30.9486L10.0607 34L12.4654 26.4364L12.9998 26.7796L13.5342 26.4364L15.9389 34L19.7332 30.9486L24.5829 31.217L21.75 22.3065L23.4028 21.7393L23.7329 18.591ZM9.05015 30.6349L6.91261 28.9159L4.18043 29.0671L5.97628 23.4186L7.22428 25.4566L10.3487 25.077L10.7377 25.3269L9.05015 30.6349ZM16.9494 30.6349L19.0869 28.9159L21.8191 29.0671L20.0232 23.4186L18.7751 25.4566L15.6508 25.077L15.2618 25.3269L16.9494 30.6349ZM21.5651 20.2633L19.1125 21.105L17.7536 23.324L15.1834 23.0118L12.9998 24.4143L10.8162 23.0118L8.24586 23.3241L6.88694 21.105L4.43436 20.2633L4.16268 17.6712L2.31767 15.8435L3.195 13.3898L2.31767 10.9362L4.16268 9.10835L4.43436 6.51631L6.88694 5.67461L8.24586 3.45558L10.8161 3.76782L12.9998 2.36546L15.1834 3.76789L17.7537 3.45565L19.1126 5.67475L21.5652 6.51645L21.8369 9.10848L23.6819 10.9362L22.8045 13.3899L23.6819 15.8435L21.8369 17.6714L21.5651 20.2633ZM12.9998 5.63065C8.74818 5.63065 5.28926 9.1114 5.28926 13.3899C5.28926 17.6684 8.74818 21.149 12.9998 21.149C17.2514 21.149 20.7103 17.6682 20.7103 13.3898C20.7103 9.1114 17.2514 5.63065 12.9998 5.63065ZM12.9998 19.1551C9.84077 19.1551 7.27067 16.5688 7.27067 13.3898C7.27067 10.2108 9.84077 7.62457 12.9998 7.62457C16.1588 7.62457 18.7289 10.2109 18.7289 13.3898C18.7289 16.5688 16.1588 19.1551 12.9998 19.1551Z" fill="white" />
</symbol>

<symbol id="approach" viewBox="0 0 32 22" fill="none" >
  <g clip-path="url(#clip0_1_261)">
    <path fill-rule="evenodd" clip-rule="evenodd" d="M32 0H0V11.0306H2.23853C1.40039 12.1107 1.48315 13.6629 2.48877 14.6486C2.99756 15.1477 3.65454 15.4151 4.32202 15.451C4.35864 16.1055 4.63135 16.7497 5.14038 17.2488C5.64917 17.7477 6.30615 18.015 6.97363 18.0509C7.01025 18.7054 7.28296 19.3496 7.79199 19.8487C8.72607 20.7646 10.125 20.8857 11.177 20.2939C11.3135 20.6044 11.511 20.8953 11.7695 21.1485C12.866 22.2238 14.6504 22.2238 15.7468 21.1485L16.0005 20.9L16.0112 20.9108C17.0972 21.9753 18.8665 21.9753 19.9556 20.9111L19.9832 20.884C20.2148 20.6578 20.4009 20.3985 20.5366 20.117C21.634 20.9125 23.1973 20.8278 24.1958 19.8484C24.6904 19.3637 24.9778 18.7298 25.0151 18.0505C25.6824 18.0143 26.3389 17.7472 26.8474 17.2485C27.3562 16.7499 27.6284 16.1062 27.6653 15.452C28.3582 15.4154 29.0046 15.1336 29.499 14.6486C30.5107 13.6569 30.5876 12.1071 29.7498 11.0304H32V0ZM3.81445 13.3488C3.44897 12.9904 3.44897 12.4073 3.81445 12.0487L4.85278 11.0306H5.927C6.19556 11.292 6.46606 11.5558 6.71802 11.8019L5.14038 13.3488C4.77393 13.7081 4.18091 13.7081 3.81445 13.3488ZM6.46606 14.6489C6.10059 15.0072 6.10059 15.5904 6.46606 15.9487C6.83154 16.3071 7.42627 16.3071 7.79199 15.9487L9.37109 14.4004L8.04541 13.1003L6.46606 14.6489ZM10.4436 18.5486C10.0771 18.9079 9.48413 18.9079 9.11792 18.5486C8.7522 18.1903 8.7522 17.6071 9.11792 17.2488L10.697 15.7002L12.0229 17.0003C10.3594 18.6314 10.4342 18.558 10.4685 18.5242C10.4781 18.5147 10.4842 18.5088 10.4436 18.5486ZM13.0952 19.8487C13.4607 20.207 14.0554 20.207 14.4211 19.8487L14.6743 19.6002L13.3486 18.3001L13.0928 18.551C12.7297 18.9096 12.7305 19.4911 13.0952 19.8487ZM28.1733 13.3488C27.8069 13.7079 27.2139 13.7081 26.8474 13.3488L21.7051 8.30673L20.3792 9.60657L25.5217 14.6486C25.8872 15.0072 25.8872 15.5904 25.5217 15.9487C25.156 16.3071 24.5613 16.3071 24.1958 15.9487L19.0535 10.9066L17.7275 12.2065L22.8701 17.2488C23.2363 17.6081 23.2363 18.1893 22.8701 18.5489C22.5044 18.907 21.9097 18.9072 21.5442 18.5489L16.4019 13.5065L15.0759 14.8066L18.6565 18.3174C19.0178 18.6717 19.0142 19.2356 18.6609 19.5811L18.6321 19.6091C18.2739 19.959 17.6931 19.9598 17.3372 19.611C15.5469 17.8574 14.2942 16.6282 13.1888 15.5435C11.2654 13.656 9.78763 12.2059 6.69897 9.1922H1.875V1.83844H10.0229L5.80322 5.97589L7.79199 7.92588C8.89087 9.00357 10.6702 9.00381 11.7695 7.92588L14.0537 5.68624C16.4485 7.37076 19.656 7.64078 22.3308 6.32036L28.1733 12.0487C28.5396 12.408 28.5398 12.9895 28.1733 13.3488ZM27.9116 9.1922H30.125V1.83844H12.6746L8.45483 5.97589L9.11792 6.6258C9.48413 6.98511 10.0771 6.98511 10.4436 6.6258L13.9495 3.18831L14.6106 3.76976C16.644 5.55889 19.6804 5.81742 21.9944 4.39837L22.627 4.01058L27.9116 9.1922Z" fill="white" />
  </g>
  <defs>
    <clipPath id="clip0_1_261">
      <rect width="32" height="22" fill="white" />
    </clipPath>
  </defs>
</symbol>

<symbol id="prices" viewBox="0 0 32 32" fill="none" >
  <g clip-path="url(#clip0_1_271)">
    <path fill-rule="evenodd" clip-rule="evenodd" d="M29.1462 11.3593C29.4914 10.3022 29.5717 9.17782 29.3769 8.06911C29.1347 6.69162 28.4824 5.43913 27.4904 4.44713C26.4984 3.45513 25.246 2.80284 23.8684 2.56069C22.7597 2.36569 21.6352 2.4461 20.5782 2.7913L17.7869 0L0 17.7869L2.79136 20.5783C2.44616 21.6354 2.36588 22.7598 2.56075 23.8685C2.8029 25.246 3.45519 26.4985 4.44719 27.4905C5.43919 28.4825 6.69168 29.1348 8.06918 29.3769C9.17795 29.5718 10.3023 29.4915 11.3594 29.1463L14.1507 31.9377L31.9376 14.1507L29.1462 11.3593ZM14.1506 29.0694L11.8347 26.7534L11.1976 27.0379C9.40532 27.8383 7.26887 27.4438 5.88126 26.0562C4.49379 24.6687 4.09924 22.5322 4.89962 20.7399L5.18406 20.1028L2.86815 17.7869L17.7869 2.86821L20.1029 5.18412L20.74 4.89968C22.5322 4.09931 24.6688 4.49379 26.0564 5.88133C27.4438 7.2688 27.8383 9.40526 27.038 11.1976L26.7534 11.8348L29.0695 14.1507L14.1506 29.0694ZM14.241 9.32452L16.2578 9.10933L17.6985 22.612L15.6817 22.8272L14.241 9.32452ZM22.7625 13.8846C21.6571 12.7792 19.8584 12.7792 18.7529 13.8846C18.2175 14.4201 17.9225 15.1321 17.9225 15.8894C17.9225 16.6467 18.2174 17.3587 18.7529 17.8942C19.3057 18.4468 20.0316 18.7232 20.7577 18.7232C21.4837 18.7232 22.2097 18.4468 22.7625 17.8941C23.2981 17.3586 23.5929 16.6466 23.5929 15.8893C23.5929 15.1321 23.2979 14.42 22.7625 13.8846ZM21.3285 16.4601C21.0138 16.7748 20.5017 16.7748 20.187 16.4601C20.0346 16.3076 19.9506 16.105 19.9506 15.8894C19.9506 15.6738 20.0346 15.4712 20.187 15.3187C20.5018 15.0041 21.0138 15.004 21.3285 15.3187C21.4809 15.4712 21.5649 15.6738 21.5649 15.8893C21.5649 16.1049 21.4809 16.3076 21.3285 16.4601ZM13.196 14.0548C12.0906 12.9494 10.292 12.9493 9.18649 14.0549C8.65104 14.5904 8.35605 15.3024 8.35605 16.0596C8.35605 16.8169 8.65098 17.529 9.18649 18.0644C9.72201 18.5999 10.434 18.8948 11.1913 18.8948C11.9485 18.8948 12.6606 18.5999 13.196 18.0644C14.3015 16.9589 14.3015 15.1603 13.196 14.0548ZM11.7621 16.6303C11.6096 16.7828 11.407 16.8667 11.1914 16.8667C10.9758 16.8667 10.7731 16.7828 10.6208 16.6303C10.4683 16.4779 10.3843 16.2753 10.3843 16.0597C10.3843 15.8441 10.4683 15.6414 10.6208 15.489C10.7781 15.3316 10.9848 15.253 11.1915 15.253C11.3981 15.253 11.6048 15.3317 11.7621 15.489C12.0767 15.8036 12.0767 16.3156 11.7621 16.6303Z" fill="white" />
  </g>
  <defs>
    <clipPath id="clip0_1_271">
      <rect width="32" height="32" fill="white" />
    </clipPath>
  </defs>
</symbol>

<symbol id="shipping" viewBox="0 0 36 30" fill="none" >
  <path d="M34.3304 14.2092L31.1691 9.78324C30.337 8.61781 28.985 7.922 27.5527 7.922H24.7031V1.06885C24.7031 0.486379 24.2309 0.0141602 23.6484 0.0141602H1.05469C0.472219 0.0141602 0 0.486379 0 1.06885V24.7923C0 25.3748 0.472219 25.847 1.05469 25.847H4.64625C5.12107 27.7896 6.87558 29.236 8.96252 29.236C11.0495 29.236 12.804 27.7896 13.2788 25.847H22.7213C23.1961 27.7896 24.9506 29.236 27.0375 29.236C29.1245 29.236 30.879 27.7896 31.3538 25.847H34.9453C35.5278 25.847 36 25.3748 36 24.7923V19.4184C36 17.54 35.4227 15.7387 34.3304 14.2092ZM8.96252 27.1267C7.67531 27.1267 6.62815 26.0794 6.62815 24.7923C6.62815 23.5051 7.67538 22.458 8.96252 22.458C10.2497 22.458 11.2969 23.5052 11.2969 24.7923C11.2969 26.0794 10.2497 27.1267 8.96252 27.1267ZM22.5937 23.7376H13.2799C12.8051 21.7947 11.0495 20.3486 8.96252 20.3486C6.87551 20.3486 5.11995 21.7947 4.64527 23.7376H2.10938V2.12354H22.5937V23.7376ZM27.0375 27.1267C25.7503 27.1267 24.7031 26.0794 24.7031 24.7923C24.7031 23.5051 25.7503 22.458 27.0375 22.458C28.3246 22.458 29.3719 23.5052 29.3719 24.7923C29.3719 26.0794 28.3247 27.1267 27.0375 27.1267ZM33.8906 23.7376H31.3549C30.8801 21.7947 29.1246 20.3486 27.0375 20.3486C26.1819 20.3486 25.3819 20.5917 24.7032 21.0124V10.0314H27.5527C28.3052 10.0314 29.0154 10.3968 29.4526 11.0092L32.6139 15.4352C33.4491 16.6047 33.8906 17.9821 33.8906 19.4184V23.7376Z" fill="white" />
</symbol>

<symbol id="bonus" viewBox="0 0 32 32" fill="none" >
  <path fill-rule="evenodd" clip-rule="evenodd" d="M6.94596 18.9232C10.776 18.9232 13.8919 15.7555 13.8919 11.862C13.8919 10.3303 13.4174 8.87308 12.5187 7.6464L6.94596 0.0644531L1.37234 7.64766C0.47458 8.87302 0 10.3303 0 11.862C0 15.7555 3.11595 18.9232 6.94596 18.9232ZM2.94269 8.83856L6.94596 3.39192L10.9484 8.8373C11.5924 9.7163 11.9327 10.7622 11.9327 11.8619C11.9327 14.6573 9.69567 16.9314 6.94596 16.9314C4.19624 16.9314 1.95918 14.6573 1.95918 11.862C1.95918 10.7622 2.29956 9.7163 2.94269 8.83856ZM22.0156 13.6322C21.5612 13.6322 20.7999 13.9528 20.4787 14.2794L11.871 23.03C11.3618 23.5477 11.3618 24.39 11.871 24.9077C12.1177 25.1585 12.4457 25.2967 12.7946 25.2967C13.1436 25.2967 13.4715 25.1585 13.7182 24.9077L20.7512 17.7581L22.1365 19.1665L15.1035 26.3161C14.4872 26.9427 13.6677 27.288 12.796 27.2884H3.26531C2.54511 27.2884 1.95918 27.884 1.95918 28.6162C1.95918 29.3483 2.54511 29.944 3.26531 29.944H15.9623L28.5202 21.039H32V23.0307H29.136L16.5781 31.9357H3.26531C1.46482 31.9357 0 30.4465 0 28.6162C0 26.7858 1.46482 25.2967 3.26531 25.2967H9.80291C9.283 24.082 9.50994 22.6136 10.4857 21.6216L19.0933 12.8712C19.7833 12.1696 21.0397 11.6406 22.0156 11.6406H32V13.6323L22.0156 13.6322Z" fill="white" />
</symbol>

<symbol id="arrow-left" viewBox="0 0 8 11" fill="none" >
  <path fill-rule="evenodd" clip-rule="evenodd" d="M4 5.73191L6.74587 2.98604C7.25138 2.48055 7.25138 1.66096 6.74587 1.15546C6.24037 0.649955 5.4208 0.649955 4.91529 1.15546L1.25413 4.81663C0.748623 5.32213 0.748623 6.14171 1.25413 6.64721L4.91529 10.3084C5.4208 10.8139 6.24037 10.8139 6.74587 10.3084C7.25138 9.80287 7.25138 8.9833 6.74587 8.47779L4 5.73191Z" fill="black" />
</symbol>

<symbol id="arrow-right" viewBox="0 0 8 11" fill="none" >
  <path fill-rule="evenodd" clip-rule="evenodd" d="M4 5.73191L1.25413 2.98604C0.748625 2.48055 0.748625 1.66096 1.25413 1.15546C1.75963 0.649956 2.5792 0.649956 3.08471 1.15546L6.74587 4.81663C7.25138 5.32213 7.25138 6.14171 6.74587 6.64721L3.08471 10.3084C2.5792 10.8139 1.75963 10.8139 1.25413 10.3084C0.748625 9.80287 0.748625 8.9833 1.25413 8.47779L4 5.73191Z" fill="black" />
</symbol>







</defs>
</svg>

